<?xml version="1.0" encoding="UTF-8" standalone="no"?>
<svg
   width="210mm"
   height="297mm"
   viewBox="0 0 210 297"
   version="1.1"
   id="svg8"
   inkscape:version="1.2.2 (732a01da63, 2022-12-09)"
   sodipodi:docname="drawing.svg"
   inkscape:export-filename="doc\pict\bootstrap_breakpoints.png"
   inkscape:export-xdpi="96.007904"
   inkscape:export-ydpi="96.007904"
   xml:space="preserve"
   xmlns:inkscape="http://www.inkscape.org/namespaces/inkscape"
   xmlns:sodipodi="http://sodipodi.sourceforge.net/DTD/sodipodi-0.dtd"
   xmlns="http://www.w3.org/2000/svg"
   xmlns:svg="http://www.w3.org/2000/svg"
   xmlns:rdf="http://www.w3.org/1999/02/22-rdf-syntax-ns#"
   xmlns:cc="http://creativecommons.org/ns#"
   xmlns:dc="http://purl.org/dc/elements/1.1/"><defs
     id="defs2"><marker
       style="overflow:visible"
       id="marker2501"
       refX="0"
       refY="0"
       orient="auto"
       inkscape:stockid="Arrow1Lend"
       inkscape:isstock="true"
       viewBox="0 0 17.773854 10.156488"
       markerWidth="17.773853"
       markerHeight="10.156487"
       preserveAspectRatio="xMidYMid"><path
         transform="matrix(-0.8,0,0,-0.8,-10,0)"
         style="fill:#000000;fill-opacity:1;fill-rule:evenodd;stroke:#000000;stroke-width:1pt;stroke-opacity:1"
         d="M 0,0 5,-5 -12.5,0 5,5 Z"
         id="path2499" /></marker><marker
       style="overflow:visible;"
       id="marker2491"
       refX="0.0"
       refY="0.0"
       orient="auto"
       inkscape:stockid="Arrow1Lend"
       inkscape:isstock="true"><path
         transform="scale(0.8) rotate(180) translate(12.5,0)"
         style="fill-rule:evenodd;stroke:#000000;stroke-width:1pt;stroke-opacity:1;fill:#000000;fill-opacity:1"
         d="M 0.0,0.0 L 5.0,-5.0 L -12.5,0.0 L 5.0,5.0 L 0.0,0.0 z "
         id="path2489" /></marker><marker
       style="overflow:visible;"
       id="marker2481"
       refX="0.0"
       refY="0.0"
       orient="auto"
       inkscape:stockid="Arrow1Lend"
       inkscape:isstock="true"><path
         transform="scale(0.8) rotate(180) translate(12.5,0)"
         style="fill-rule:evenodd;stroke:#800000;stroke-width:1pt;stroke-opacity:1;fill:#800000;fill-opacity:1"
         d="M 0.0,0.0 L 5.0,-5.0 L -12.5,0.0 L 5.0,5.0 L 0.0,0.0 z "
         id="path2479" /></marker><marker
       style="overflow:visible"
       id="marker2471"
       refX="0"
       refY="0"
       orient="auto"
       inkscape:stockid="Arrow1Lend"
       inkscape:isstock="true"><path
         transform="matrix(-0.8,0,0,-0.8,-10,0)"
         style="fill:#800000;fill-opacity:1;fill-rule:evenodd;stroke:#800000;stroke-width:1pt;stroke-opacity:1"
         d="M 0,0 5,-5 -12.5,0 5,5 Z"
         id="path2469" /></marker><marker
       style="overflow:visible;"
       id="marker2461"
       refX="0.0"
       refY="0.0"
       orient="auto"
       inkscape:stockid="Arrow1Lend"
       inkscape:isstock="true"><path
         transform="scale(0.8) rotate(180) translate(12.5,0)"
         style="fill-rule:evenodd;stroke:#000000;stroke-width:1pt;stroke-opacity:1;fill:#000000;fill-opacity:1"
         d="M 0.0,0.0 L 5.0,-5.0 L -12.5,0.0 L 5.0,5.0 L 0.0,0.0 z "
         id="path2459" /></marker><marker
       style="overflow:visible"
       id="marker2451"
       refX="0"
       refY="0"
       orient="auto"
       inkscape:stockid="Arrow1Lend"
       inkscape:isstock="true"
       viewBox="0 0 17.773854 10.156488"
       markerWidth="17.773853"
       markerHeight="10.156488"
       preserveAspectRatio="xMidYMid"><path
         transform="matrix(-0.8,0,0,-0.8,-10,0)"
         style="fill:#000000;fill-opacity:1;fill-rule:evenodd;stroke:#000000;stroke-width:1pt;stroke-opacity:1"
         d="M 0,0 5,-5 -12.5,0 5,5 Z"
         id="path2449" /></marker><marker
       style="overflow:visible;"
       id="marker1837"
       refX="0.0"
       refY="0.0"
       orient="auto"
       inkscape:stockid="Arrow1Lend"
       inkscape:isstock="true"><path
         transform="scale(0.8) rotate(180) translate(12.5,0)"
         style="fill-rule:evenodd;stroke:#000000;stroke-width:1pt;stroke-opacity:1;fill:#000000;fill-opacity:1"
         d="M 0.0,0.0 L 5.0,-5.0 L -12.5,0.0 L 5.0,5.0 L 0.0,0.0 z "
         id="path1835" /></marker><style
       id="style1455">.cls-1,.cls-11,.cls-14,.cls-2{fill:none;}.cls-10,.cls-11,.cls-12,.cls-13,.cls-14,.cls-15,.cls-2,.cls-8,.cls-9{stroke:#191e1e;}.cls-2,.cls-8,.cls-9{stroke-miterlimit:10;}.cls-10,.cls-11,.cls-12,.cls-14,.cls-15,.cls-2,.cls-8,.cls-9{stroke-width:1.39px;}.cls-3{fill:#111414;}.cls-4{fill:#101313;}.cls-5{fill:#0e1010;}.cls-15,.cls-6,.cls-8{fill:#191e1e;}.cls-10,.cls-12,.cls-13,.cls-7,.cls-9{fill:#fff;}.cls-10,.cls-11{stroke-linecap:round;}.cls-10,.cls-11,.cls-12,.cls-13,.cls-14,.cls-15{stroke-linejoin:round;}.cls-13{stroke-width:1.4px;}.cls-16{fill:#131717;}.cls-17{clip-path:url(#clip-path);}</style><clipPath
       id="clip-path"><polygon
         class="cls-1"
         points="226.47 336.38 226.58 296.26 251.54 310.67 251.43 350.79 226.47 336.38"
         id="polygon1457" /></clipPath><style
       id="style12453">.cls-1,.cls-11,.cls-14,.cls-2{fill:none;}.cls-10,.cls-11,.cls-12,.cls-13,.cls-14,.cls-15,.cls-2,.cls-8,.cls-9{stroke:#191e1e;}.cls-2,.cls-8,.cls-9{stroke-miterlimit:10;}.cls-10,.cls-11,.cls-12,.cls-14,.cls-15,.cls-2,.cls-8,.cls-9{stroke-width:1.39px;}.cls-3{fill:#111414;}.cls-4{fill:#101313;}.cls-5{fill:#0e1010;}.cls-15,.cls-6,.cls-8{fill:#191e1e;}.cls-10,.cls-12,.cls-13,.cls-7,.cls-9{fill:#fff;}.cls-10,.cls-11{stroke-linecap:round;}.cls-10,.cls-11,.cls-12,.cls-13,.cls-14,.cls-15{stroke-linejoin:round;}.cls-13{stroke-width:1.4px;}.cls-16{fill:#131717;}.cls-17{clip-path:url(#clip-path);}</style><clipPath
       id="clip-path-9"><polygon
         class="cls-1"
         points="226.47 336.38 226.58 296.26 251.54 310.67 251.43 350.79 226.47 336.38"
         id="polygon12455" /></clipPath><style
       id="style29877">.cls-1,.cls-11,.cls-14,.cls-2{fill:none;}.cls-10,.cls-11,.cls-12,.cls-13,.cls-14,.cls-15,.cls-2,.cls-8,.cls-9{stroke:#191e1e;}.cls-2,.cls-8,.cls-9{stroke-miterlimit:10;}.cls-10,.cls-11,.cls-12,.cls-14,.cls-15,.cls-2,.cls-8,.cls-9{stroke-width:1.39px;}.cls-3{fill:#111414;}.cls-4{fill:#101313;}.cls-5{fill:#0e1010;}.cls-15,.cls-6,.cls-8{fill:#191e1e;}.cls-10,.cls-12,.cls-13,.cls-7,.cls-9{fill:#fff;}.cls-10,.cls-11{stroke-linecap:round;}.cls-10,.cls-11,.cls-12,.cls-13,.cls-14,.cls-15{stroke-linejoin:round;}.cls-13{stroke-width:1.4px;}.cls-16{fill:#131717;}.cls-17{clip-path:url(#clip-path);}</style><clipPath
       id="clip-path-5"><polygon
         class="cls-1"
         points="226.47 336.38 226.58 296.26 251.54 310.67 251.43 350.79 226.47 336.38"
         id="polygon29879" /></clipPath></defs><sodipodi:namedview
     id="base"
     pagecolor="#ffffff"
     bordercolor="#666666"
     borderopacity="1.0"
     inkscape:pageopacity="0.0"
     inkscape:pageshadow="2"
     inkscape:zoom="1.3933652"
     inkscape:cx="373.91491"
     inkscape:cy="291.02206"
     inkscape:document-units="mm"
     inkscape:current-layer="layer1"
     inkscape:document-rotation="0"
     showgrid="false"
     inkscape:window-width="1366"
     inkscape:window-height="683"
     inkscape:window-x="-8"
     inkscape:window-y="-8"
     inkscape:window-maximized="1"
     inkscape:snap-bbox="true"
     inkscape:snap-midpoints="true"
     inkscape:showpageshadow="2"
     inkscape:pagecheckerboard="0"
     inkscape:deskcolor="#d1d1d1"
     showguides="true" /><metadata
     id="metadata5"><rdf:RDF><cc:Work
         rdf:about=""><dc:format>image/svg+xml</dc:format><dc:type
           rdf:resource="http://purl.org/dc/dcmitype/StillImage" /><dc:title /></cc:Work></rdf:RDF></metadata><g
     inkscape:label="Layer 1"
     inkscape:groupmode="layer"
     id="layer1"><text
       xml:space="preserve"
       style="font-style:normal;font-weight:normal;font-size:3.175px;line-height:1.25;font-family:sans-serif;fill:#ff0000;fill-opacity:1;stroke:none;stroke-width:0.264583"
       x="6.3311005"
       y="8.5044641"
       id="text839"><tspan
         sodipodi:role="line"
         id="tspan837"
         x="6.3311005"
         y="8.5044641"
         style="font-size:3.175px;fill:#ff0000;stroke:none;stroke-width:0.264583">Export at 96 dpi (45 by 45 px) </tspan><tspan
         sodipodi:role="line"
         x="6.3311005"
         y="12.473214"
         style="font-size:3.175px;fill:#ff0000;stroke:none;stroke-width:0.264583"
         id="tspan841">and use as a favicon.png.</tspan></text><text
       xml:space="preserve"
       style="font-style:normal;font-weight:normal;font-size:3.175px;line-height:1.25;font-family:sans-serif;fill:#ff0000;fill-opacity:1;stroke:none;stroke-width:0.264583"
       x="77.728989"
       y="8.5044641"
       id="text3212"><tspan
         sodipodi:role="line"
         x="77.728989"
         y="8.5044641"
         style="font-size:3.175px;fill:#ff0000;stroke:none;stroke-width:0.264583"
         id="tspan3210">Export all other pictures</tspan><tspan
         sodipodi:role="line"
         x="77.728989"
         y="12.473214"
         style="font-size:3.175px;fill:#ff0000;stroke:none;stroke-width:0.264583"
         id="tspan3216">at 96 dpi as well.</tspan></text><path
       id="circle459"
       style="opacity:0.9955;fill:#008000;fill-rule:evenodd;stroke:#f9f9f9;stroke-width:0.4;stroke-dasharray:none;paint-order:normal"
       d="m 25.502634,25.696143 c 1e-6,3.177363 -2.575762,5.753126 -5.753125,5.753125 l -5.753125,-2e-6 10e-7,-5.753123 c 10e-7,-3.177363 2.575762,-5.755899 5.753124,-5.753124 l 5.753124,0.0051 z"
       sodipodi:nodetypes="sscsscs"
       inkscape:export-filename="doc\favicon.png"
       inkscape:export-xdpi="96"
       inkscape:export-ydpi="96" /><path
       style="color:#000000;fill:#ffffff;fill-rule:evenodd;-inkscape-stroke:none"
       d="m 19.748,20.693359 5.003906,0.0039 v 4.998046 c 10e-7,2.77203 -2.229923,5.003908 -5.001953,5.003907 h -5.003906 v -5.003907 c 10e-7,-2.77203 2.230714,-5.004373 5.001953,-5.001953 z"
       id="path1092"
       sodipodi:nodetypes="ccsscscc" /><text
       xml:space="preserve"
       style="font-style:normal;font-variant:normal;font-weight:bold;font-stretch:normal;font-size:10.08px;line-height:1.25;font-family:sans-serif;-inkscape-font-specification:'sans-serif Bold';fill:#008000;fill-opacity:0.99607843;stroke:none;stroke-width:1.665;stroke-miterlimit:4;stroke-dasharray:none;paint-order:normal"
       x="16.573563"
       y="29.294035"
       id="text463"
       transform="scale(0.99817752,1.0018258)"
       inkscape:export-filename="D:\8230o\study\java\spring\spring_ioc\doc\pict\favicon.png"
       inkscape:export-xdpi="96"
       inkscape:export-ydpi="96"><tspan
         sodipodi:role="line"
         id="tspan461"
         x="16.573563"
         y="29.294035"
         style="font-style:normal;font-variant:normal;font-weight:bold;font-stretch:normal;font-size:10.0261px;font-family:Tahoma;-inkscape-font-specification:'Tahoma Bold';fill:#008000;stroke:none;stroke-width:1.665;stroke-miterlimit:4;stroke-dasharray:none;paint-order:normal;fill-opacity:0.99607843">S</tspan></text><g
       id="g6031"
       transform="matrix(0.05861627,0,0,0.05861627,77.150937,17.456919)" /><path
       id="path39672"
       style="opacity:0.9955;fill:#008000;fill-rule:evenodd;stroke:#f9f9f9;stroke-width:0.4;stroke-dasharray:none;paint-order:normal"
       d="m 45.881068,53.087488 c 10e-7,3.177363 -2.575762,5.753126 -5.753125,5.753125 l -5.753125,-2e-6 1e-6,-5.753123 c 10e-7,-3.177363 2.575762,-5.755899 5.753124,-5.753124 l 5.753124,0.0051 z"
       sodipodi:nodetypes="sscsscs"
       inkscape:export-filename="doc\favicon.png"
       inkscape:export-xdpi="96"
       inkscape:export-ydpi="96" /><path
       style="color:#000000;fill:#ffffff;fill-rule:evenodd;-inkscape-stroke:none"
       d="m 40.126434,48.084704 5.003906,0.0039 v 4.998046 c 1e-6,2.77203 -2.229923,5.003908 -5.001953,5.003907 H 35.124481 V 53.08665 c 10e-7,-2.77203 2.230714,-5.004373 5.001953,-5.001953 z"
       id="path39674"
       sodipodi:nodetypes="ccsscscc" /><path
       style="fill:none;stroke:#000000;stroke-width:0.265;stroke-linecap:butt;stroke-linejoin:miter;stroke-dasharray:none;stroke-opacity:1"
       d="M 35.124481,58.222848 H 51.203446"
       id="path39743" /><path
       style="fill:none;stroke:#000000;stroke-width:0.264583px;stroke-linecap:butt;stroke-linejoin:miter;stroke-opacity:1"
       d="M 29.051375,47.952404 H 45.13034"
       id="path39745" /><path
       style="fill:none;stroke:#000000;stroke-width:0.264583px;stroke-linecap:butt;stroke-linejoin:miter;stroke-opacity:1"
       d="M 29.051375,50.006493 H 45.13034"
       id="path39747" /><path
       style="fill:none;stroke:#000000;stroke-width:0.264583px;stroke-linecap:butt;stroke-linejoin:miter;stroke-opacity:1"
       d="M 29.051375,52.060582 H 45.13034"
       id="path39749" /><path
       style="fill:none;stroke:#000000;stroke-width:0.264583px;stroke-linecap:butt;stroke-linejoin:miter;stroke-opacity:1"
       d="M 29.051375,54.11467 H 45.13034"
       id="path39751" /><path
       style="fill:none;stroke:#000000;stroke-width:0.264583px;stroke-linecap:butt;stroke-linejoin:miter;stroke-opacity:1"
       d="M 29.051375,56.168759 H 45.13034"
       id="path39753" /><path
       id="path39755"
       style="opacity:0.9955;fill:#ffffff;fill-rule:evenodd;stroke:#f9f9f9;stroke-width:0.4;stroke-dasharray:none;paint-order:normal"
       d="m 67.385885,25.696143 c 10e-7,3.177363 -2.575762,5.753126 -5.753125,5.753125 l -5.753125,-2e-6 10e-7,-5.753123 c 1e-6,-3.177363 2.575762,-5.755899 5.753124,-5.753124 l 5.753124,0.0051 z"
       sodipodi:nodetypes="sscsscs"
       inkscape:export-filename="doc\favicon.png"
       inkscape:export-xdpi="96"
       inkscape:export-ydpi="96" /><path
       sodipodi:type="star"
       style="fill:#ffffff;fill-opacity:0.996078;stroke:#008000;stroke-width:0.56451;stroke-dasharray:none;stroke-opacity:0.996078;paint-order:normal"
       id="path40181"
       inkscape:flatsided="true"
       sodipodi:sides="6"
       sodipodi:cx="50.889984"
       sodipodi:cy="39.211872"
       sodipodi:r1="4.5657105"
       sodipodi:r2="3.9540217"
       sodipodi:arg1="1.0471976"
       sodipodi:arg2="1.5707963"
       inkscape:rounded="0"
       inkscape:randomized="0"
       d="m 53.172839,43.165894 -4.56571,-1e-6 -2.282855,-3.954021 2.282855,-3.954021 4.565711,0 2.282855,3.954021 z"
       transform="matrix(0.47063341,0,0,0.46823746,88.135551,13.157585)" /><path
       sodipodi:type="star"
       style="fill:#ffffff;fill-opacity:0.996078;stroke:#008000;stroke-width:0.56451;stroke-dasharray:none;stroke-opacity:0.996078;paint-order:normal"
       id="path39811"
       inkscape:flatsided="true"
       sodipodi:sides="6"
       sodipodi:cx="50.889984"
       sodipodi:cy="39.211872"
       sodipodi:r1="4.5657105"
       sodipodi:r2="3.9540217"
       sodipodi:arg1="1.0471976"
       sodipodi:arg2="1.5707963"
       inkscape:rounded="0"
       inkscape:randomized="0"
       d="m 53.172839,43.165894 -4.56571,-1e-6 -2.282855,-3.954021 2.282855,-3.954021 4.565711,0 2.282855,3.954021 z"
       transform="matrix(0.47063341,0,0,0.46823746,78.46606,18.711847)" /><path
       sodipodi:type="star"
       style="fill:#ffffff;fill-opacity:0.996078;stroke:#008000;stroke-width:0.56451;stroke-dasharray:none;stroke-opacity:0.996078;paint-order:normal"
       id="path40141"
       inkscape:flatsided="true"
       sodipodi:sides="6"
       sodipodi:cx="50.889984"
       sodipodi:cy="39.211872"
       sodipodi:r1="4.5657105"
       sodipodi:r2="3.9540217"
       sodipodi:arg1="1.0471976"
       sodipodi:arg2="1.5707963"
       inkscape:rounded="0"
       inkscape:randomized="0"
       d="m 53.172839,43.165894 -4.56571,-1e-6 -2.282855,-3.954021 2.282855,-3.954021 4.565711,0 2.282855,3.954021 z"
       transform="matrix(0.47063341,0,0,0.46823746,78.46606,15.009006)" /><path
       sodipodi:type="star"
       style="fill:#ffffff;fill-opacity:0.996078;stroke:#008000;stroke-width:0.56451;stroke-dasharray:none;stroke-opacity:0.996078;paint-order:normal"
       id="path40143"
       inkscape:flatsided="true"
       sodipodi:sides="6"
       sodipodi:cx="50.889984"
       sodipodi:cy="39.211872"
       sodipodi:r1="4.5657105"
       sodipodi:r2="3.9540217"
       sodipodi:arg1="1.0471976"
       sodipodi:arg2="1.5707963"
       inkscape:rounded="0"
       inkscape:randomized="0"
       d="m 53.172839,43.165894 -4.56571,-1e-6 -2.282855,-3.954021 2.282855,-3.954021 4.565711,0 2.282855,3.954021 z"
       transform="matrix(0.47063341,0,0,0.46823746,78.46606,11.306164)" /><path
       sodipodi:type="star"
       style="fill:#ffffff;fill-opacity:0.996078;stroke:#008000;stroke-width:0.56451;stroke-dasharray:none;stroke-opacity:0.996078;paint-order:normal"
       id="path40145"
       inkscape:flatsided="true"
       sodipodi:sides="6"
       sodipodi:cx="50.889984"
       sodipodi:cy="39.211872"
       sodipodi:r1="4.5657105"
       sodipodi:r2="3.9540217"
       sodipodi:arg1="1.0471976"
       sodipodi:arg2="1.5707963"
       inkscape:rounded="0"
       inkscape:randomized="0"
       d="m 53.172839,43.165894 -4.56571,-1e-6 -2.282855,-3.954021 2.282855,-3.954021 4.565711,0 2.282855,3.954021 z"
       transform="matrix(0.47063341,0,0,0.46823746,81.689223,13.157585)" /><path
       sodipodi:type="star"
       style="fill:#ffffff;fill-opacity:0.996078;stroke:#008000;stroke-width:0.56451;stroke-dasharray:none;stroke-opacity:0.996078;paint-order:normal"
       id="path40147"
       inkscape:flatsided="true"
       sodipodi:sides="6"
       sodipodi:cx="50.889984"
       sodipodi:cy="39.211872"
       sodipodi:r1="4.5657105"
       sodipodi:r2="3.9540217"
       sodipodi:arg1="1.0471976"
       sodipodi:arg2="1.5707963"
       inkscape:rounded="0"
       inkscape:randomized="0"
       d="m 53.172839,43.165894 -4.56571,-1e-6 -2.282855,-3.954021 2.282855,-3.954021 4.565711,0 2.282855,3.954021 z"
       transform="matrix(0.47063341,0,0,0.46823746,81.689223,16.860427)" /><path
       sodipodi:type="star"
       style="fill:#ffffff;fill-opacity:0.996078;stroke:#008000;stroke-width:0.56451;stroke-dasharray:none;stroke-opacity:0.996078;paint-order:normal"
       id="path40149"
       inkscape:flatsided="true"
       sodipodi:sides="6"
       sodipodi:cx="50.889984"
       sodipodi:cy="39.211872"
       sodipodi:r1="4.5657105"
       sodipodi:r2="3.9540217"
       sodipodi:arg1="1.0471976"
       sodipodi:arg2="1.5707963"
       inkscape:rounded="0"
       inkscape:randomized="0"
       d="m 53.172839,43.165894 -4.56571,-1e-6 -2.282855,-3.954021 2.282855,-3.954021 4.565711,0 2.282855,3.954021 z"
       transform="matrix(0.47063341,0,0,0.46823746,81.689223,9.4547432)" /><path
       sodipodi:type="star"
       style="fill:#ffffff;fill-opacity:0.996078;stroke:#008000;stroke-width:0.56451;stroke-dasharray:none;stroke-opacity:0.996078;paint-order:normal"
       id="path40151"
       inkscape:flatsided="true"
       sodipodi:sides="6"
       sodipodi:cx="50.889984"
       sodipodi:cy="39.211872"
       sodipodi:r1="4.5657105"
       sodipodi:r2="3.9540217"
       sodipodi:arg1="1.0471976"
       sodipodi:arg2="1.5707963"
       inkscape:rounded="0"
       inkscape:randomized="0"
       d="m 53.172839,43.165894 -4.56571,-1e-6 -2.282855,-3.954021 2.282855,-3.954021 4.565711,0 2.282855,3.954021 z"
       transform="matrix(0.47063341,0,0,0.46823746,84.912387,11.306164)" /><path
       sodipodi:type="star"
       style="fill:#ffffff;fill-opacity:0.996078;stroke:#008000;stroke-width:0.56451;stroke-dasharray:none;stroke-opacity:0.996078;paint-order:normal"
       id="path40153"
       inkscape:flatsided="true"
       sodipodi:sides="6"
       sodipodi:cx="50.889984"
       sodipodi:cy="39.211872"
       sodipodi:r1="4.5657105"
       sodipodi:r2="3.9540217"
       sodipodi:arg1="1.0471976"
       sodipodi:arg2="1.5707963"
       inkscape:rounded="0"
       inkscape:randomized="0"
       d="m 53.172839,43.165894 -4.56571,-1e-6 -2.282855,-3.954021 2.282855,-3.954021 4.565711,0 2.282855,3.954021 z"
       transform="matrix(0.47063341,0,0,0.46823746,84.912387,15.009006)" /><path
       sodipodi:type="star"
       style="fill:#ffffff;fill-opacity:0.996078;stroke:#008000;stroke-width:0.56451;stroke-dasharray:none;stroke-opacity:0.996078;paint-order:normal"
       id="path40155"
       inkscape:flatsided="true"
       sodipodi:sides="6"
       sodipodi:cx="50.889984"
       sodipodi:cy="39.211872"
       sodipodi:r1="4.5657105"
       sodipodi:r2="3.9540217"
       sodipodi:arg1="1.0471976"
       sodipodi:arg2="1.5707963"
       inkscape:rounded="0"
       inkscape:randomized="0"
       d="m 53.172839,43.165894 -4.56571,-1e-6 -2.282855,-3.954021 2.282855,-3.954021 4.565711,0 2.282855,3.954021 z"
       transform="matrix(0.47063341,0,0,0.46823746,84.912387,18.711848)" /><path
       sodipodi:type="star"
       style="fill:#ffffff;fill-opacity:0.996078;stroke:#008000;stroke-width:0.56451;stroke-dasharray:none;stroke-opacity:0.996078;paint-order:normal"
       id="path40157"
       inkscape:flatsided="true"
       sodipodi:sides="6"
       sodipodi:cx="50.889984"
       sodipodi:cy="39.211872"
       sodipodi:r1="4.5657105"
       sodipodi:r2="3.9540217"
       sodipodi:arg1="1.0471976"
       sodipodi:arg2="1.5707963"
       inkscape:rounded="0"
       inkscape:randomized="0"
       d="m 53.172839,43.165894 -4.56571,-1e-6 -2.282855,-3.954021 2.282855,-3.954021 4.565711,0 2.282855,3.954021 z"
       transform="matrix(0.47063341,0,0,0.46823746,81.689223,20.563269)" /><path
       sodipodi:type="star"
       style="fill:#ffffff;fill-opacity:0.996078;stroke:#008000;stroke-width:0.56451;stroke-dasharray:none;stroke-opacity:0.996078;paint-order:normal"
       id="path40183"
       inkscape:flatsided="true"
       sodipodi:sides="6"
       sodipodi:cx="50.889984"
       sodipodi:cy="39.211872"
       sodipodi:r1="4.5657105"
       sodipodi:r2="3.9540217"
       sodipodi:arg1="1.0471976"
       sodipodi:arg2="1.5707963"
       inkscape:rounded="0"
       inkscape:randomized="0"
       d="m 53.172839,43.165894 -4.56571,-1e-6 -2.282855,-3.954021 2.282855,-3.954021 4.565711,0 2.282855,3.954021 z"
       transform="matrix(0.47063341,0,0,0.46823746,88.135551,16.860427)" /><path
       sodipodi:type="star"
       style="fill:#ffffff;fill-opacity:0.996078;stroke:#008000;stroke-width:0.56451;stroke-dasharray:none;stroke-opacity:0.996078;paint-order:normal"
       id="path40185"
       inkscape:flatsided="true"
       sodipodi:sides="6"
       sodipodi:cx="50.889984"
       sodipodi:cy="39.211872"
       sodipodi:r1="4.5657105"
       sodipodi:r2="3.9540217"
       sodipodi:arg1="1.0471976"
       sodipodi:arg2="1.5707963"
       inkscape:rounded="0"
       inkscape:randomized="0"
       d="m 53.172839,43.165894 -4.56571,-1e-6 -2.282855,-3.954021 2.282855,-3.954021 4.565711,0 2.282855,3.954021 z"
       transform="matrix(0.47063341,0,0,0.46823746,75.242896,13.157585)" /><path
       sodipodi:type="star"
       style="fill:#ffffff;fill-opacity:0.996078;stroke:#008000;stroke-width:0.56451;stroke-dasharray:none;stroke-opacity:0.996078;paint-order:normal"
       id="path40187"
       inkscape:flatsided="true"
       sodipodi:sides="6"
       sodipodi:cx="50.889984"
       sodipodi:cy="39.211872"
       sodipodi:r1="4.5657105"
       sodipodi:r2="3.9540217"
       sodipodi:arg1="1.0471976"
       sodipodi:arg2="1.5707963"
       inkscape:rounded="0"
       inkscape:randomized="0"
       d="m 53.172839,43.165894 -4.56571,-1e-6 -2.282855,-3.954021 2.282855,-3.954021 4.565711,0 2.282855,3.954021 z"
       transform="matrix(0.47063341,0,0,0.46823746,75.242896,16.860426)" /><path
       style="color:#000000;fill:#ffffff;fill-rule:evenodd;-inkscape-stroke:none"
       d="m 61.631783,20.69322 5.003906,0.0039 v 4.998046 c 10e-7,2.77203 -2.229923,5.003908 -5.001953,5.003907 H 56.62983 v -5.003907 c 1e-6,-2.77203 2.230714,-5.004373 5.001953,-5.001953 z"
       id="path40541"
       sodipodi:nodetypes="ccsscscc" /><path
       sodipodi:type="star"
       style="fill:#71c838;fill-opacity:1;stroke:#008000;stroke-width:0.663473;stroke-dasharray:none;stroke-opacity:0.996078;paint-order:normal"
       id="path40189"
       inkscape:flatsided="true"
       sodipodi:sides="6"
       sodipodi:cx="50.889984"
       sodipodi:cy="39.211872"
       sodipodi:r1="4.5657105"
       sodipodi:r2="3.9540217"
       sodipodi:arg1="1.0471976"
       sodipodi:arg2="1.5707963"
       inkscape:rounded="0"
       inkscape:randomized="0"
       d="m 53.172839,43.165894 -4.56571,-1e-6 -2.282855,-3.954021 2.282855,-3.954021 4.565711,0 2.282855,3.954021 z"
       transform="matrix(0.40080796,0,0,0.39802408,37.683356,13.79274)" /><path
       sodipodi:type="star"
       style="fill:#ffffff;fill-opacity:0.996078;stroke:#008000;stroke-width:0.663473;stroke-dasharray:none;stroke-opacity:0.996078;paint-order:normal"
       id="path40567"
       inkscape:flatsided="true"
       sodipodi:sides="6"
       sodipodi:cx="50.889984"
       sodipodi:cy="39.211872"
       sodipodi:r1="4.5657105"
       sodipodi:r2="3.9540217"
       sodipodi:arg1="1.0471976"
       sodipodi:arg2="1.5707963"
       inkscape:rounded="0"
       inkscape:randomized="0"
       d="m 53.172839,43.165894 -4.56571,-1e-6 -2.282855,-3.954021 2.282855,-3.954021 4.565711,0 2.282855,3.954021 z"
       transform="matrix(0.40080796,0,0,0.39802408,40.428316,12.218944)" /><path
       sodipodi:type="star"
       style="fill:#ffffff;fill-opacity:0.996078;stroke:#008000;stroke-width:0.663473;stroke-dasharray:none;stroke-opacity:0.996078;paint-order:normal"
       id="path40569"
       inkscape:flatsided="true"
       sodipodi:sides="6"
       sodipodi:cx="50.889984"
       sodipodi:cy="39.211872"
       sodipodi:r1="4.5657105"
       sodipodi:r2="3.9540217"
       sodipodi:arg1="1.0471976"
       sodipodi:arg2="1.5707963"
       inkscape:rounded="0"
       inkscape:randomized="0"
       d="m 53.172839,43.165894 -4.56571,-1e-6 -2.282855,-3.954021 2.282855,-3.954021 4.565711,0 2.282855,3.954021 z"
       transform="matrix(0.40080796,0,0,0.39802408,40.428316,9.0713526)" /><path
       sodipodi:type="star"
       style="fill:#ffffff;fill-opacity:0.996078;stroke:#008000;stroke-width:0.663473;stroke-dasharray:none;stroke-opacity:0.996078;paint-order:normal"
       id="path40571"
       inkscape:flatsided="true"
       sodipodi:sides="6"
       sodipodi:cx="50.889984"
       sodipodi:cy="39.211872"
       sodipodi:r1="4.5657105"
       sodipodi:r2="3.9540217"
       sodipodi:arg1="1.0471976"
       sodipodi:arg2="1.5707963"
       inkscape:rounded="0"
       inkscape:randomized="0"
       d="m 53.172839,43.165894 -4.56571,-1e-6 -2.282855,-3.954021 2.282855,-3.954021 4.565711,0 2.282855,3.954021 z"
       transform="matrix(0.40080796,0,0,0.39802408,40.428316,9.0713526)" /><path
       sodipodi:type="star"
       style="fill:#ffffff;fill-opacity:1;stroke:#008000;stroke-width:0.663473;stroke-dasharray:none;stroke-opacity:0.996078;paint-order:normal"
       id="path40573"
       inkscape:flatsided="true"
       sodipodi:sides="6"
       sodipodi:cx="50.889984"
       sodipodi:cy="39.211872"
       sodipodi:r1="4.5657105"
       sodipodi:r2="3.9540217"
       sodipodi:arg1="1.0471976"
       sodipodi:arg2="1.5707963"
       inkscape:rounded="0"
       inkscape:randomized="0"
       d="m 53.172839,43.165894 -4.56571,-1e-6 -2.282855,-3.954021 2.282855,-3.954021 4.565711,0 2.282855,3.954021 z"
       transform="matrix(0.40080796,0,0,0.39802408,43.173276,7.497557)" /><path
       id="path40575"
       style="fill:#71c837;fill-opacity:0.996078;stroke:#008000;stroke-width:0.663473;stroke-opacity:0.996078"
       transform="matrix(0.40080796,0,0,0.39802408,40.428316,5.9237612)"
       d="m 53.172839,43.165894 -4.56571,-1e-6 -2.282855,-3.954021 c 0.192433,-2.486287 4.359908,-2.823116 7.517342,-2.795667 l 1.614079,2.795667 z"
       sodipodi:nodetypes="cccccc" /><path
       sodipodi:type="star"
       style="fill:#71c838;fill-opacity:1;stroke:#008000;stroke-width:0.663473;stroke-dasharray:none;stroke-opacity:0.996078;paint-order:normal"
       id="path40577"
       inkscape:flatsided="true"
       sodipodi:sides="6"
       sodipodi:cx="50.889984"
       sodipodi:cy="39.211872"
       sodipodi:r1="4.5657105"
       sodipodi:r2="3.9540217"
       sodipodi:arg1="1.0471976"
       sodipodi:arg2="1.5707963"
       inkscape:rounded="0"
       inkscape:randomized="0"
       d="m 53.172839,43.165894 -4.56571,-1e-6 -2.282855,-3.954021 2.282855,-3.954021 4.565711,0 2.282855,3.954021 z"
       transform="matrix(0.40080796,0,0,0.39802408,43.173276,10.645148)" /><path
       sodipodi:type="star"
       style="fill:#ffffff;fill-opacity:0.996078;stroke:#008000;stroke-width:0.663473;stroke-dasharray:none;stroke-opacity:0.996078;paint-order:normal"
       id="path40579"
       inkscape:flatsided="true"
       sodipodi:sides="6"
       sodipodi:cx="50.889984"
       sodipodi:cy="39.211872"
       sodipodi:r1="4.5657105"
       sodipodi:r2="3.9540217"
       sodipodi:arg1="1.0471976"
       sodipodi:arg2="1.5707963"
       inkscape:rounded="0"
       inkscape:randomized="0"
       d="m 53.172839,43.165894 -4.56571,-1e-6 -2.282855,-3.954021 2.282855,-3.954021 4.565711,0 2.282855,3.954021 z"
       transform="matrix(0.40080796,0,0,0.39802408,37.683356,10.645148)" /><path
       id="path40583"
       style="fill:#ffffff;fill-opacity:0.996078;stroke:#008000;stroke-width:0.663473;stroke-opacity:0.996078"
       transform="matrix(0.40080796,0,0,0.39802408,37.683356,7.4975568)"
       d="m 53.172839,43.165894 -4.56571,-1e-6 -1.165926,-2.019442 0.804997,-1.873237 2.012437,-2.742071 1.523465,-1.273292 h 1.390738 l 2.282855,3.954021 z"
       sodipodi:nodetypes="ccccccccc" /><path
       id="path40587"
       style="fill:#ffffff;fill-opacity:0.996078;stroke:#008000;stroke-width:0.663473;stroke-opacity:0.996078"
       transform="matrix(0.40080796,0,0,0.39802408,43.173276,13.79274)"
       d="m 52.519838,41.461012 -3.912709,1.704881 -2.282855,-3.954021 2.282855,-3.954021 h 4.565711 l 2.282855,3.954021 z"
       sodipodi:nodetypes="ccccccc" /><path
       id="path40589"
       style="fill:#ffffff;fill-opacity:0.996078;stroke:#008000;stroke-width:0.663473;stroke-opacity:0.996078"
       transform="matrix(0.40080796,0,0,0.39802408,45.918236,9.0713528)"
       d="m 52.374356,41.183997 -0.03472,1.981897 -3.732507,-1e-6 -2.282855,-3.954021 2.282855,-3.954021 h 3.805788 l -0.03856,1.570759 10e-7,2.341094 z"
       sodipodi:nodetypes="ccccccccc" /><path
       id="path40591"
       style="fill:#71c838;fill-opacity:1;stroke:#008000;stroke-width:0.663473;stroke-opacity:0.996078"
       transform="matrix(0.40080796,0,0,0.39802408,45.918236,5.9237614)"
       d="m 52.374353,41.479173 0.0072,1.686721 -3.774382,-1e-6 -2.282855,-3.954021 1.582026,-2.740149 1.381308,-0.05299 3.086744,0.0027 10e-7,2.558502 z"
       sodipodi:nodetypes="ccccccccc" /><path
       id="path40559"
       style="opacity:0.9955;fill:none;fill-rule:evenodd;stroke:#008000;stroke-width:0.55;stroke-dasharray:none;paint-order:normal;stroke-opacity:0.99607843"
       d="m 66.910295,25.694789 c 0,2.915521 -2.362398,5.279019 -5.276562,5.279017 l -5.27656,-2e-6 10e-7,-5.279015 c 0,-2.91552 2.362396,-5.281561 5.276559,-5.279015 l 5.27656,0.0046 z"
       sodipodi:nodetypes="sscsscs"
       inkscape:export-filename="doc\favicon.png"
       inkscape:export-xdpi="96"
       inkscape:export-ydpi="96" /><path
       id="path41777"
       style="opacity:0.9955;fill:#008000;fill-rule:evenodd;stroke:#f9f9f9;stroke-width:0.4;stroke-dasharray:none;paint-order:normal"
       d="m 42.687499,25.696143 c 10e-7,3.177363 -2.575762,5.753126 -5.753125,5.753125 l -5.753125,-2e-6 10e-7,-5.753123 c 1e-6,-3.177363 2.575762,-5.755899 5.753124,-5.753124 l 5.753124,0.0051 z"
       sodipodi:nodetypes="sscsscs"
       inkscape:export-filename="doc\favicon.png"
       inkscape:export-xdpi="96"
       inkscape:export-ydpi="96" /><path
       style="color:#000000;fill:#d7f4d7;fill-rule:evenodd;-inkscape-stroke:none"
       d="m 36.932865,20.693359 5.003906,0.0039 v 4.998046 c 10e-7,2.77203 -2.229923,5.003908 -5.001953,5.003907 h -5.003906 v -5.003907 c 1e-6,-2.77203 2.230714,-5.004373 5.001953,-5.001953 z"
       id="path41779"
       sodipodi:nodetypes="ccsscscc" /><text
       xml:space="preserve"
       style="font-style:normal;font-variant:normal;font-weight:bold;font-stretch:normal;font-size:10.08px;line-height:1.25;font-family:sans-serif;-inkscape-font-specification:'sans-serif Bold';fill:#333333;fill-opacity:0.996078;stroke:none;stroke-width:1.665;stroke-miterlimit:4;stroke-dasharray:none;paint-order:normal"
       x="33.79245"
       y="29.768045"
       id="text41783"
       transform="scale(0.99817752,1.0018258)"
       inkscape:export-filename="D:\8230o\study\java\spring\spring_ioc\doc\pict\favicon.png"
       inkscape:export-xdpi="96"
       inkscape:export-ydpi="96"><tspan
         sodipodi:role="line"
         id="tspan41781"
         x="33.79245"
         y="29.768045"
         style="font-style:normal;font-variant:normal;font-weight:bold;font-stretch:normal;font-size:10.0261px;font-family:Tahoma;-inkscape-font-specification:'Tahoma Bold';fill:#333333;fill-opacity:0.996078;stroke:none;stroke-width:1.665;stroke-miterlimit:4;stroke-dasharray:none;paint-order:normal">P</tspan></text><text
       xml:space="preserve"
       style="font-style:normal;font-weight:normal;font-size:10.5833px;line-height:1.25;font-family:sans-serif;fill:#000000;fill-opacity:1;stroke:none;stroke-width:0.264583"
       x="7.785408"
       y="17.659584"
       id="text41837"><tspan
         sodipodi:role="line"
         id="tspan41835"
         style="stroke-width:0.264583"></tspan></text></g></svg>
